In Roman-ruled Britain, a young Roman soldier endeavors to honor his father's memory by finding his lost legion's golden emblem...
 
http://www.imdb.com/title/tt1034389/

Subs: Dutch, English (srt).


Het is het jaar 140, 20 jaar eerder marcheerden het Negende Legioen van Rome, onder het bevel van Flavius Aquila, naar het noorden. Het keerde nooit meer terug. Flavius's zoon Marcus is vastbesloten om de geschonden reputatie van zijn vader te herstellen. Alleen begeleid door zijn slaaf Esca rijdt Marcus uit naar het noorden. Tijdens de reis beseft Marcus dat de verdwijning van zijn vader mogelijk gekoppeld is aan de mysterieuze identiteit van Esca. Het mysterie wordt steeds groter wanneer ze tegenover de krijgers van de angstaanjagende Seal Prins komen te staan...
 
http://www.moviemeter.nl/film/61589

Ondertitels: Engels, Nederlands (srt).

General
Complete name                    : The Eagle-AC3-XviD-R5 2011.avi
Format                           : AVI
Format/Info                      : Audio Video Interleave
File size                        : 1.75 GiB
Duration                         : 1h 49mn
Overall bit rate                 : 2 293 Kbps
Writing application              : VirtualDubMod 1.5.4.1 (build 2178/release)
Writing library                  : VirtualDubMod build 2178/release

Video
ID                               : 0
Format                           : MPEG-4 Visual
Format profile                   : Simple@L3
Format settings, BVOP            : No
Format settings, QPel            : No
Format settings, GMC             : No warppoints
Format settings, Matrix          : Default (H.263)
Codec ID                         : XVID
Codec ID/Hint                    : XviD
Duration                         : 1h 49mn
Bit rate                         : 2 091 Kbps
Width                            : 720 pixels
Height                           : 304 pixels
Display aspect ratio             : 2.35:1
Frame rate                       : 25.000 fps
Resolution                       : 8 bits
Colorimetry                      : 4:2:0
Scan type                        : Progressive
Bits/(Pixel*Frame)               : 0.382
Stream size                      : 1.60 GiB (91%)
Writing library                  : XviD 1.1.2 (UTC 2006-11-01)

Audio
ID                               : 1
Format                           : AC-3
Format/Info                      : Audio Coding 3
Codec ID                         : 2000
Duration                         : 1h 49mn
Bit rate mode                    : Constant
Bit rate                         : 192 Kbps
Channel(s)                       : 2 channels
Channel positions                : L R
Sampling rate                    : 48.0 KHz
Stream size                      : 150 MiB (8%)
Alignment                        : Split accross interleaves
Interleave, duration             : 40 ms (1.00 video frame)
Interleave, preload duration     : 500 ms

Thanks to Simply ReleaseS Toppers.

Enjoy..

TBS.